<mxfile host="app.diagrams.net" modified="2025-01-07T17:18:22.656Z" agent="Mozilla/5.0 (Windows NT 10.0; Win64; x64; rv:133.0) Gecko/20100101 Firefox/133.0" etag="GHBVYRY1JCMSyePLwVzt" version="24.5.2" type="device">
  <diagram name="Page-1" id="UiMXJsPIhDtZ11NpVhrF">
    <mxGraphModel dx="1434" dy="1887" grid="1" gridSize="10" guides="1" tooltips="1" connect="1" arrows="1" fold="1" page="1" pageScale="1" pageWidth="827" pageHeight="1169" math="0" shadow="0">
      <root>
        <mxCell id="0" />
        <mxCell id="1" parent="0" />
        <mxCell id="386_-3L5awMgX5GtoFln-2" value="&lt;font style=&quot;font-size: 18px;&quot;&gt;Traitement de l&#39;image et localisation des objets par détection des composantes connexes&lt;/font&gt;" style="rounded=0;whiteSpace=wrap;html=1;fillColor=#ffe6cc;strokeColor=#d79b00;" parent="1" vertex="1">
          <mxGeometry x="264.25" y="-400" width="190.5" height="120" as="geometry" />
        </mxCell>
        <mxCell id="386_-3L5awMgX5GtoFln-3" value="&lt;span style=&quot;font-size: 18px;&quot;&gt;Grande image contenant des objets à détecter et compter&lt;/span&gt;" style="text;html=1;strokeColor=none;fillColor=none;align=left;verticalAlign=middle;whiteSpace=wrap;rounded=0;" parent="1" vertex="1">
          <mxGeometry x="160" y="-520" width="190" height="80" as="geometry" />
        </mxCell>
        <mxCell id="386_-3L5awMgX5GtoFln-4" value="&lt;span style=&quot;font-size: 18px;&quot;&gt;Catalogue d&#39;objets à détecter et compter&lt;/span&gt;" style="text;html=1;strokeColor=none;fillColor=none;align=left;verticalAlign=middle;whiteSpace=wrap;rounded=0;" parent="1" vertex="1">
          <mxGeometry x="400" y="-520" width="160" height="80" as="geometry" />
        </mxCell>
        <mxCell id="386_-3L5awMgX5GtoFln-6" value="&lt;font style=&quot;font-size: 18px;&quot;&gt;Classification au moyen d&#39;un réseau Bayésien&lt;/font&gt;" style="rounded=0;whiteSpace=wrap;html=1;fillColor=#ffe6cc;strokeColor=#d79b00;" parent="1" vertex="1">
          <mxGeometry x="160" y="120" width="160" height="80" as="geometry" />
        </mxCell>
        <mxCell id="386_-3L5awMgX5GtoFln-7" value="&lt;font style=&quot;font-size: 18px;&quot;&gt;Classification au moyen d&#39;un k-ppv&lt;/font&gt;" style="rounded=0;whiteSpace=wrap;html=1;fillColor=#ffe6cc;strokeColor=#d79b00;" parent="1" vertex="1">
          <mxGeometry x="400" y="120" width="160" height="80" as="geometry" />
        </mxCell>
        <mxCell id="386_-3L5awMgX5GtoFln-8" value="" style="endArrow=classic;html=1;rounded=0;exitX=0.5;exitY=1;exitDx=0;exitDy=0;entryX=0.5;entryY=0;entryDx=0;entryDy=0;" parent="1" source="386_-3L5awMgX5GtoFln-4" target="386_-3L5awMgX5GtoFln-2" edge="1">
          <mxGeometry width="50" height="50" relative="1" as="geometry">
            <mxPoint x="395" y="46" as="sourcePoint" />
            <mxPoint x="284" y="-94" as="targetPoint" />
          </mxGeometry>
        </mxCell>
        <mxCell id="386_-3L5awMgX5GtoFln-9" value="" style="endArrow=classic;html=1;rounded=0;exitX=0.5;exitY=1;exitDx=0;exitDy=0;entryX=0.5;entryY=0;entryDx=0;entryDy=0;" parent="1" source="386_-3L5awMgX5GtoFln-3" target="386_-3L5awMgX5GtoFln-2" edge="1">
          <mxGeometry width="50" height="50" relative="1" as="geometry">
            <mxPoint x="395" y="46" as="sourcePoint" />
            <mxPoint x="445" y="-4" as="targetPoint" />
          </mxGeometry>
        </mxCell>
        <mxCell id="386_-3L5awMgX5GtoFln-10" value="" style="endArrow=classic;html=1;rounded=0;exitX=0.5;exitY=1;exitDx=0;exitDy=0;entryX=0.5;entryY=0;entryDx=0;entryDy=0;" parent="1" source="386_-3L5awMgX5GtoFln-2" target="duyzHBdhFGvxHI4F8nOn-2" edge="1">
          <mxGeometry width="50" height="50" relative="1" as="geometry">
            <mxPoint x="495" y="46" as="sourcePoint" />
            <mxPoint x="610" y="-324" as="targetPoint" />
          </mxGeometry>
        </mxCell>
        <mxCell id="386_-3L5awMgX5GtoFln-11" value="&lt;span style=&quot;font-size: 18px;&quot;&gt;Vecteurs&lt;br&gt;(un pour chaque objet détecté)&lt;/span&gt;" style="text;html=1;strokeColor=none;fillColor=none;align=center;verticalAlign=middle;whiteSpace=wrap;rounded=0;" parent="1" vertex="1">
          <mxGeometry x="234" width="251" height="80" as="geometry" />
        </mxCell>
        <mxCell id="386_-3L5awMgX5GtoFln-13" value="" style="endArrow=classic;html=1;rounded=0;exitX=0.5;exitY=1;exitDx=0;exitDy=0;entryX=0.5;entryY=0;entryDx=0;entryDy=0;" parent="1" source="386_-3L5awMgX5GtoFln-11" target="386_-3L5awMgX5GtoFln-6" edge="1">
          <mxGeometry width="50" height="50" relative="1" as="geometry">
            <mxPoint x="490" y="190" as="sourcePoint" />
            <mxPoint x="240" y="80" as="targetPoint" />
          </mxGeometry>
        </mxCell>
        <mxCell id="386_-3L5awMgX5GtoFln-14" value="" style="endArrow=classic;html=1;rounded=0;exitX=0.5;exitY=1;exitDx=0;exitDy=0;entryX=0.5;entryY=0;entryDx=0;entryDy=0;" parent="1" source="386_-3L5awMgX5GtoFln-11" target="386_-3L5awMgX5GtoFln-7" edge="1">
          <mxGeometry width="50" height="50" relative="1" as="geometry">
            <mxPoint x="490" y="190" as="sourcePoint" />
            <mxPoint x="540" y="140" as="targetPoint" />
          </mxGeometry>
        </mxCell>
        <mxCell id="386_-3L5awMgX5GtoFln-15" value="" style="endArrow=classic;html=1;rounded=0;exitX=0.5;exitY=1;exitDx=0;exitDy=0;entryX=0.5;entryY=0;entryDx=0;entryDy=0;" parent="1" source="386_-3L5awMgX5GtoFln-6" target="386_-3L5awMgX5GtoFln-16" edge="1">
          <mxGeometry width="50" height="50" relative="1" as="geometry">
            <mxPoint x="790" y="370" as="sourcePoint" />
            <mxPoint x="840" y="320" as="targetPoint" />
          </mxGeometry>
        </mxCell>
        <mxCell id="386_-3L5awMgX5GtoFln-16" value="&lt;span style=&quot;font-size: 18px;&quot;&gt;Les deux méthodes ont-elles attribué la même classe à l&#39;objet i ?&lt;/span&gt;" style="text;html=1;strokeColor=none;fillColor=none;align=center;verticalAlign=middle;whiteSpace=wrap;rounded=0;" parent="1" vertex="1">
          <mxGeometry x="214.5" y="260" width="290" height="60" as="geometry" />
        </mxCell>
        <mxCell id="386_-3L5awMgX5GtoFln-17" value="" style="endArrow=classic;html=1;rounded=0;exitX=0.5;exitY=1;exitDx=0;exitDy=0;entryX=0.5;entryY=0;entryDx=0;entryDy=0;" parent="1" source="386_-3L5awMgX5GtoFln-7" target="386_-3L5awMgX5GtoFln-16" edge="1">
          <mxGeometry width="50" height="50" relative="1" as="geometry">
            <mxPoint x="400" y="250" as="sourcePoint" />
            <mxPoint x="450" y="200" as="targetPoint" />
          </mxGeometry>
        </mxCell>
        <mxCell id="386_-3L5awMgX5GtoFln-18" value="" style="endArrow=classic;html=1;rounded=0;exitX=0.5;exitY=1;exitDx=0;exitDy=0;entryX=0.5;entryY=0;entryDx=0;entryDy=0;" parent="1" source="386_-3L5awMgX5GtoFln-16" target="386_-3L5awMgX5GtoFln-21" edge="1">
          <mxGeometry width="50" height="50" relative="1" as="geometry">
            <mxPoint x="400" y="450" as="sourcePoint" />
            <mxPoint x="520" y="440" as="targetPoint" />
          </mxGeometry>
        </mxCell>
        <mxCell id="386_-3L5awMgX5GtoFln-19" value="&lt;span style=&quot;font-size: 18px;&quot;&gt;oui&lt;/span&gt;" style="text;html=1;strokeColor=none;fillColor=none;align=left;verticalAlign=middle;whiteSpace=wrap;rounded=0;" parent="1" vertex="1">
          <mxGeometry x="320" y="400" width="30" height="30" as="geometry" />
        </mxCell>
        <mxCell id="386_-3L5awMgX5GtoFln-20" value="&lt;span style=&quot;font-size: 18px;&quot;&gt;non&lt;/span&gt;" style="text;html=1;strokeColor=none;fillColor=none;align=left;verticalAlign=middle;whiteSpace=wrap;rounded=0;" parent="1" vertex="1">
          <mxGeometry x="444.5" y="320" width="30" height="40" as="geometry" />
        </mxCell>
        <mxCell id="386_-3L5awMgX5GtoFln-21" value="&lt;span style=&quot;font-size: 18px;&quot;&gt;Laisser le choix de la classe de l&#39;objet i à l&#39;utilisateur.&lt;/span&gt;" style="text;html=1;strokeColor=none;fillColor=none;align=left;verticalAlign=middle;whiteSpace=wrap;rounded=0;" parent="1" vertex="1">
          <mxGeometry x="440" y="380" width="160" height="70" as="geometry" />
        </mxCell>
        <mxCell id="386_-3L5awMgX5GtoFln-22" value="" style="endArrow=classic;html=1;rounded=0;exitX=0.5;exitY=1;exitDx=0;exitDy=0;" parent="1" source="386_-3L5awMgX5GtoFln-16" target="386_-3L5awMgX5GtoFln-29" edge="1">
          <mxGeometry width="50" height="50" relative="1" as="geometry">
            <mxPoint x="400" y="450" as="sourcePoint" />
            <mxPoint x="360" y="520" as="targetPoint" />
          </mxGeometry>
        </mxCell>
        <mxCell id="386_-3L5awMgX5GtoFln-23" value="" style="endArrow=classic;html=1;rounded=0;exitX=0.5;exitY=1;exitDx=0;exitDy=0;entryX=0.5;entryY=0;entryDx=0;entryDy=0;" parent="1" source="386_-3L5awMgX5GtoFln-21" target="386_-3L5awMgX5GtoFln-29" edge="1">
          <mxGeometry width="50" height="50" relative="1" as="geometry">
            <mxPoint x="400" y="450" as="sourcePoint" />
            <mxPoint x="360" y="520" as="targetPoint" />
          </mxGeometry>
        </mxCell>
        <mxCell id="386_-3L5awMgX5GtoFln-24" value="&lt;span style=&quot;font-size: 18px;&quot;&gt;Image annotée avec une couleur par classe, chaque composant identifié entouré et libellé de la classe attribuée&lt;br&gt;&lt;/span&gt;" style="text;html=1;strokeColor=none;fillColor=none;align=left;verticalAlign=middle;whiteSpace=wrap;rounded=0;" parent="1" vertex="1">
          <mxGeometry x="196.75" y="630" width="325.5" height="120" as="geometry" />
        </mxCell>
        <mxCell id="386_-3L5awMgX5GtoFln-26" value="" style="curved=1;endArrow=classic;html=1;rounded=0;entryX=0.5;entryY=0;entryDx=0;entryDy=0;" parent="1" target="386_-3L5awMgX5GtoFln-16" edge="1">
          <mxGeometry width="50" height="50" relative="1" as="geometry">
            <mxPoint x="360" y="550" as="sourcePoint" />
            <mxPoint x="360" y="260" as="targetPoint" />
            <Array as="points">
              <mxPoint x="740.5" y="580" />
              <mxPoint x="670.5" y="270" />
              <mxPoint x="490.5" y="240" />
            </Array>
          </mxGeometry>
        </mxCell>
        <mxCell id="386_-3L5awMgX5GtoFln-29" value="&lt;font style=&quot;font-size: 18px;&quot;&gt;Tous les objets détectés sont-ils associés à une et une seule classe ?&lt;/font&gt;" style="text;html=1;strokeColor=none;fillColor=none;align=center;verticalAlign=middle;whiteSpace=wrap;rounded=0;" parent="1" vertex="1">
          <mxGeometry x="200" y="480" width="320" height="70" as="geometry" />
        </mxCell>
        <mxCell id="386_-3L5awMgX5GtoFln-30" value="&lt;span style=&quot;font-size: 18px;&quot;&gt;non&lt;/span&gt;" style="text;html=1;strokeColor=none;fillColor=none;align=left;verticalAlign=middle;whiteSpace=wrap;rounded=0;" parent="1" vertex="1">
          <mxGeometry x="670" y="290" width="30" height="40" as="geometry" />
        </mxCell>
        <mxCell id="386_-3L5awMgX5GtoFln-31" value="" style="endArrow=classic;html=1;rounded=0;exitX=0.5;exitY=1;exitDx=0;exitDy=0;entryX=0.5;entryY=0;entryDx=0;entryDy=0;" parent="1" target="386_-3L5awMgX5GtoFln-24" edge="1">
          <mxGeometry width="50" height="50" relative="1" as="geometry">
            <mxPoint x="359.5" y="550" as="sourcePoint" />
            <mxPoint x="360" y="630" as="targetPoint" />
          </mxGeometry>
        </mxCell>
        <mxCell id="386_-3L5awMgX5GtoFln-32" value="&lt;span style=&quot;font-size: 18px;&quot;&gt;oui&lt;/span&gt;" style="text;html=1;strokeColor=none;fillColor=none;align=left;verticalAlign=middle;whiteSpace=wrap;rounded=0;" parent="1" vertex="1">
          <mxGeometry x="360" y="580" width="30" height="30" as="geometry" />
        </mxCell>
        <mxCell id="duyzHBdhFGvxHI4F8nOn-1" value="&lt;span style=&quot;font-size: 18px;&quot;&gt;Description des objets/composantes connexes détecté(e)s&lt;br&gt;&lt;/span&gt;" style="rounded=0;whiteSpace=wrap;html=1;fillColor=#ffe6cc;strokeColor=#d79b00;" parent="1" vertex="1">
          <mxGeometry x="280.5" y="-160" width="160" height="120" as="geometry" />
        </mxCell>
        <mxCell id="duyzHBdhFGvxHI4F8nOn-2" value="&lt;span style=&quot;font-size: 18px;&quot;&gt;Composantes connexes&lt;/span&gt;" style="text;html=1;strokeColor=none;fillColor=none;align=center;verticalAlign=middle;whiteSpace=wrap;rounded=0;" parent="1" vertex="1">
          <mxGeometry x="260" y="-240" width="200" height="40" as="geometry" />
        </mxCell>
        <mxCell id="duyzHBdhFGvxHI4F8nOn-3" value="" style="endArrow=classic;html=1;rounded=0;exitX=0.5;exitY=1;exitDx=0;exitDy=0;" parent="1" source="duyzHBdhFGvxHI4F8nOn-2" target="duyzHBdhFGvxHI4F8nOn-1" edge="1">
          <mxGeometry width="50" height="50" relative="1" as="geometry">
            <mxPoint x="310" y="-180" as="sourcePoint" />
            <mxPoint x="359" y="-160" as="targetPoint" />
          </mxGeometry>
        </mxCell>
        <mxCell id="duyzHBdhFGvxHI4F8nOn-4" value="" style="endArrow=classic;html=1;rounded=0;exitX=0.5;exitY=1;exitDx=0;exitDy=0;entryX=0.5;entryY=0;entryDx=0;entryDy=0;" parent="1" source="duyzHBdhFGvxHI4F8nOn-1" target="386_-3L5awMgX5GtoFln-11" edge="1">
          <mxGeometry width="50" height="50" relative="1" as="geometry">
            <mxPoint x="600" y="-230" as="sourcePoint" />
            <mxPoint x="650" y="-280" as="targetPoint" />
          </mxGeometry>
        </mxCell>
      </root>
    </mxGraphModel>
  </diagram>
</mxfile>
